<svg width="800" height="600" xmlns="http://www.w3.org/2000/svg">
 <defs>
  <linearGradient id="svg_1" y2="100%" x2="99.305%" y1="0%" x1=".695%">
   <stop offset="0%" stop-color="#FF8F71"/>
   <stop offset="100%" stop-color="#FF3E55"/>
  </linearGradient>
 </defs>
 <g>
  <title>Layer 1</title>
  <g stroke="null">

   <path stroke="null" fill-rule="evenodd" fill="url(#svg_1)" d="m561.63206,402.9413l-79.03717,195.62385l-195.62385,-79.03717l54.94047,-135.98243c13.30824,-32.93905 50.79907,-48.85296 83.73812,-35.54472l135.98243,54.94047zm-324.88038,-132.14708c54.02004,21.82551 80.11885,83.31047 58.29334,137.33051c-21.82551,54.02004 -83.31047,80.11885 -137.33051,58.29334c-54.02004,-21.82551 -80.11885,-83.31047 -58.29334,-137.33051c21.82551,-54.02004 83.31047,-80.11885 137.33051,-58.29334zm418.15213,-98.13765l-79.03717,195.62385l-135.98243,-54.94047c-32.93905,-13.30824 -48.85296,-50.79907 -35.54472,-83.73812l0,0l54.94047,-135.98243l195.62385,79.03717zm-227.71171,-92.62849l-54.94047,135.98243c-13.30824,32.93904 -50.79907,48.85296 -83.73812,35.54472l-135.98243,-54.94047l79.03717,-195.62385l195.62385,79.03717z"/>
  </g>
 </g>
</svg>